<?xml version="1.0" standalone="no"?>
<!DOCTYPE svg PUBLIC "-//W3C//DTD SVG 20010904//EN"
 "http://www.w3.org/TR/2001/REC-SVG-20010904/DTD/svg10.dtd">
<svg version="1.0" xmlns="http://www.w3.org/2000/svg"
 width="1680.000000pt" height="1680.000000pt" viewBox="0 0 1680.000000 1680.000000"
 preserveAspectRatio="xMidYMid meet">
<metadata>
Created by potrace 1.14, written by Peter Selinger 2001-2017
</metadata>
<g transform="translate(0.000000,1680.000000) scale(0.100000,-0.100000)"
fill="#000000" stroke="none">
<path d="M13678 11122 c-21 -2 -38 -6 -38 -10 0 -4 -10 -45 -21 -92 -11 -47
-22 -94 -24 -105 -1 -11 -17 -76 -33 -145 -17 -69 -47 -192 -66 -275 -20 -82
-50 -208 -67 -280 -17 -71 -33 -139 -35 -150 -2 -11 -13 -56 -23 -100 -11 -44
-22 -91 -25 -105 -6 -32 -8 -39 -46 -195 -18 -71 -34 -141 -36 -155 -3 -14 -7
-33 -10 -42 -5 -18 -12 -47 -20 -88 -3 -14 -8 -34 -11 -45 -9 -26 -15 -54 -28
-120 -2 -11 -4 -20 -5 -20 -2 0 -7 -21 -15 -60 -3 -16 -8 -38 -11 -47 -3 -9
-7 -25 -9 -35 -2 -10 -11 -49 -20 -88 -9 -38 -18 -77 -20 -85 -2 -8 -9 -37
-15 -65 -6 -27 -13 -57 -15 -65 -2 -8 -10 -42 -18 -75 -9 -33 -18 -71 -20 -85
-3 -14 -10 -45 -17 -70 -7 -25 -14 -54 -16 -65 -6 -33 -11 -55 -38 -168 -15
-59 -28 -118 -30 -130 -3 -12 -5 -23 -7 -24 -2 -4 -2 -4 -19 -78 -7 -33 -15
-64 -16 -70 -2 -5 -6 -23 -9 -40 -3 -16 -11 -48 -17 -70 -6 -22 -13 -49 -15
-60 -2 -11 -19 -87 -40 -170 -20 -82 -37 -159 -39 -170 -1 -11 -3 -20 -4 -20
-1 0 -3 -7 -5 -15 -2 -8 -11 -46 -20 -85 -9 -38 -19 -81 -21 -95 -3 -14 -10
-43 -16 -65 -5 -22 -12 -47 -13 -55 -2 -8 -20 -85 -40 -170 -36 -150 -40 -170
-49 -207 -2 -10 -14 -58 -26 -108 -12 -49 -24 -100 -26 -113 -2 -12 -23 -98
-45 -190 -22 -92 -43 -178 -45 -192 -3 -14 -9 -41 -14 -60 -5 -19 -11 -46 -14
-60 -2 -14 -19 -82 -36 -152 -17 -70 -33 -135 -35 -145 -2 -10 -7 -32 -10 -49
l-7 -31 392 1 c338 1 394 3 400 16 8 15 28 93 36 140 3 14 7 33 10 42 3 9 6
25 8 35 2 10 19 79 36 153 18 74 39 162 46 195 8 33 17 69 19 80 3 11 8 33 11
49 2 16 7 32 9 36 2 3 6 17 9 31 11 54 16 77 32 139 9 36 18 74 20 85 4 22 12
56 18 83 4 15 50 209 61 255 2 10 27 115 55 235 29 119 53 225 55 235 2 10 6
26 9 35 3 9 7 28 10 42 2 14 11 52 20 85 8 33 17 71 20 85 2 14 9 45 16 70 7
25 14 55 16 68 3 12 23 98 45 190 22 92 42 176 44 187 2 11 4 20 5 20 1 0 3 8
5 19 2 10 9 39 15 65 6 25 12 55 15 66 2 11 11 49 20 85 9 35 18 74 20 85 2
11 4 20 5 20 1 0 3 7 5 15 20 90 77 332 84 358 5 18 10 35 10 37 1 7 6 30 31
140 54 233 64 277 87 370 14 55 27 111 29 125 3 14 7 33 10 42 3 10 7 30 10
45 3 16 10 46 16 68 6 22 13 49 15 60 2 11 10 47 18 80 9 33 17 69 20 80 14
64 53 225 60 255 3 11 7 28 9 38 2 9 11 47 20 83 8 37 17 78 20 90 2 13 13 60
25 105 11 45 23 92 25 105 3 13 5 24 6 24 1 0 3 9 5 20 2 11 8 38 14 60 5 22
12 51 15 65 10 48 15 72 21 90 3 10 8 27 10 37 2 10 8 38 14 63 15 65 14 70
-16 70 -53 -1 -268 -1 -283 -1 -8 1 -62 1 -120 0 -58 0 -112 0 -120 0 -59 3
-133 1 -138 -3 -3 -3 -10 -2 -16 2 -6 4 -28 6 -48 4z"/>
<path d="M3788 9918 c-7 -20 -1 -2190 6 -2218 3 -13 8 -42 11 -65 5 -32 23
-130 30 -155 73 -276 235 -530 430 -674 22 -17 42 -33 45 -37 14 -19 193 -112
269 -139 115 -43 226 -72 279 -74 12 -1 22 -4 22 -7 0 -3 10 -5 22 -4 12 1 43
-2 68 -7 56 -11 304 -13 385 -3 33 4 71 8 85 10 129 15 302 67 435 131 181 86
303 180 440 339 34 39 124 177 124 189 0 5 3 12 8 15 22 16 93 203 117 308 15
70 21 100 32 179 3 21 7 531 9 1132 l2 1092 -408 0 c-225 0 -409 -3 -410 -7
-1 -5 -2 -487 -4 -1073 -1 -586 -5 -1075 -8 -1088 -29 -116 -42 -153 -70 -206
-63 -119 -207 -229 -327 -250 -216 -38 -393 -18 -525 60 -117 68 -203 205
-236 375 -9 48 -13 331 -14 1119 -2 580 -3 1058 -4 1063 0 4 -183 7 -405 7
-314 0 -405 -3 -408 -12z"/>
<path d="M7187 9923 c-2 -5 -4 -761 -3 -1682 l1 -1675 28 -7 c15 -4 27 -4 27
-1 0 4 16 7 35 7 19 0 35 -3 35 -7 0 -4 14 -3 30 2 17 5 30 5 30 0 0 -5 13 -5
30 0 17 5 32 5 35 0 3 -5 15 -6 29 0 12 4 29 4 36 0 8 -5 21 -5 30 0 9 5 22 5
30 0 8 -5 21 -5 30 0 9 5 22 5 30 0 8 -5 21 -5 30 0 9 5 22 5 30 0 8 -5 21 -5
30 0 9 5 22 5 30 0 8 -5 21 -5 30 0 9 5 22 5 30 0 8 -5 21 -5 30 0 9 5 22 5
30 0 7 -4 23 -4 36 0 12 5 25 6 28 3 13 -13 75 -8 78 7 2 8 3 461 3 1007 0
546 3 986 8 977 5 -8 21 -49 37 -92 30 -82 184 -495 330 -882 123 -327 360
-959 372 -993 9 -23 15 -28 34 -24 13 2 24 1 24 -4 0 -4 13 -4 30 1 17 5 32 5
35 0 3 -5 15 -6 29 0 12 4 29 4 36 0 8 -5 21 -5 30 0 9 5 22 5 30 0 8 -5 21
-5 30 0 9 5 22 5 30 0 8 -5 21 -5 30 0 9 5 22 5 30 0 8 -5 21 -5 30 0 9 5 22
5 30 0 8 -5 21 -5 30 0 9 5 22 5 30 0 7 -4 24 -4 36 0 14 6 26 5 29 0 3 -5 18
-5 35 0 17 5 30 5 30 1 0 -4 13 -6 29 -3 25 3 31 11 47 60 10 32 21 62 25 67
3 6 14 35 24 65 10 30 23 61 29 69 6 8 10 17 10 20 -2 7 -1 8 31 96 15 39 28
77 30 85 1 8 10 31 19 50 12 27 151 400 218 585 6 17 17 44 23 60 12 29 51
132 112 300 55 148 205 550 208 553 1 1 2 -450 1 -1002 -1 -552 0 -1003 2
-1001 2 2 17 -1 33 -5 16 -5 29 -5 29 0 0 4 15 5 33 1 17 -4 47 -4 65 0 17 3
32 3 32 -2 0 -4 14 -4 30 1 17 5 30 5 30 0 0 -5 13 -5 30 0 17 5 30 5 30 0 0
-5 13 -5 30 0 17 5 30 5 30 0 0 -5 13 -5 30 0 17 5 30 5 30 0 0 -5 13 -5 30 0
17 5 30 5 30 0 0 -5 13 -5 30 0 17 5 30 5 30 0 0 -5 13 -5 30 0 17 5 30 5 30
0 0 -5 13 -5 30 0 17 5 30 5 30 0 0 -5 13 -5 30 0 17 5 30 6 30 2 0 -6 43 -7
82 -3 3 1 6 759 6 1686 l0 1685 -483 0 -483 0 -12 -32 c-7 -18 -14 -37 -16
-43 -2 -9 -15 -41 -67 -165 -5 -14 -11 -29 -13 -35 -1 -5 -14 -37 -29 -70 -15
-33 -27 -62 -27 -65 0 -7 9 17 -203 -510 -266 -663 -261 -650 -306 -762 -22
-57 -44 -112 -49 -123 -5 -11 -46 -112 -90 -225 -45 -113 -88 -219 -96 -237
-8 -17 -14 -36 -14 -42 0 -28 -20 -6 -39 42 -11 28 -52 131 -92 227 -39 96
-78 193 -86 215 -8 22 -21 54 -28 70 -37 84 -53 125 -48 125 3 0 1 6 -5 13 -9
11 -26 51 -148 357 -30 74 -61 149 -69 167 -8 17 -15 34 -15 38 0 3 -8 25 -19
48 -10 23 -60 146 -111 272 -50 127 -97 244 -104 260 -8 17 -21 50 -31 75 -10
25 -26 63 -35 85 -10 22 -34 83 -55 135 -20 52 -46 114 -56 138 l-19 42 -479
0 c-264 0 -482 -3 -484 -7z"/>
<path d="M1109 9300 c-15 -3 -53 -35 -90 -74 -35 -39 -71 -77 -79 -86 -61 -66
-204 -221 -218 -237 -9 -11 -60 -66 -112 -123 -52 -57 -122 -132 -155 -168
-33 -36 -76 -82 -95 -103 -19 -21 -69 -75 -110 -121 -41 -45 -89 -97 -107
-115 l-31 -32 39 -42 c21 -23 39 -42 39 -44 0 -1 26 -29 58 -62 31 -33 91 -97
132 -143 41 -46 91 -100 110 -120 19 -21 55 -60 80 -87 25 -27 86 -94 137
-148 50 -55 100 -109 110 -121 26 -30 202 -221 240 -260 32 -33 35 -34 115
-34 582 -1 932 1 936 5 3 3 -3 13 -14 23 -10 11 -57 61 -104 112 -47 51 -103
112 -125 136 -22 23 -69 74 -105 114 -36 39 -87 95 -115 125 -60 64 -206 221
-266 288 -24 26 -64 70 -89 96 -25 26 -66 71 -92 99 -51 53 -56 66 -35 86 6 7
55 60 107 116 52 57 106 115 120 130 14 15 68 73 120 130 52 57 106 115 120
130 14 15 66 71 115 124 50 54 104 112 120 130 17 18 71 77 120 131 50 54 98
105 108 114 9 8 17 20 17 26 0 10 -950 15 -1001 5z"/>
<path d="M14883 9300 l-93 -5 66 -70 c36 -38 98 -105 137 -149 40 -43 98 -106
130 -139 31 -34 74 -79 93 -102 20 -22 80 -87 133 -144 53 -57 107 -116 121
-131 14 -15 68 -74 121 -131 150 -163 169 -184 169 -190 0 -4 -19 -27 -42 -51
-24 -25 -81 -87 -128 -138 -47 -51 -98 -107 -115 -125 -16 -18 -75 -81 -130
-141 -55 -59 -122 -132 -150 -162 -27 -30 -68 -74 -90 -97 -22 -23 -78 -84
-125 -135 -47 -51 -108 -118 -137 -149 -28 -31 -50 -57 -49 -58 1 -2 231 -3
511 -4 l509 0 61 63 c33 35 101 108 150 162 50 54 106 115 125 136 19 20 69
74 110 120 41 46 91 100 110 120 19 21 76 82 125 136 50 54 102 110 116 126
81 87 165 181 171 192 4 7 -15 35 -45 67 -29 31 -92 100 -142 154 -49 54 -101
110 -115 125 -14 15 -63 69 -110 120 -47 51 -96 105 -110 120 -14 15 -63 69
-110 120 -47 51 -101 110 -120 130 -39 41 -158 173 -188 208 l-20 22 -423 3
c-233 1 -466 0 -516 -3z"/>
</g>
</svg>
