<svg width="24" height="24" viewBox="0 0 24 24" fill="none" xmlns="http://www.w3.org/2000/svg">
<rect width="24" height="24" rx="12" fill="#333333"/>
<path d="M9.21622 6.97314C9.67804 6.97314 10.1043 7.00867 10.4951 7.11524C10.8859 7.18629 11.2056 7.32839 11.4898 7.50601C11.774 7.68364 11.9871 7.93231 12.1292 8.25203C12.2713 8.57175 12.3424 8.96252 12.3424 9.38882C12.3424 9.88616 12.2358 10.3125 11.9871 10.6322C11.774 10.9519 11.4187 11.2361 10.9924 11.4492C11.5964 11.6269 12.0582 11.9466 12.3424 12.3729C12.6266 12.7992 12.8042 13.332 12.8042 13.936C12.8042 14.4333 12.6976 14.8596 12.52 15.2148C12.3424 15.5701 12.0582 15.8898 11.7385 16.103C11.4187 16.3161 11.028 16.4937 10.6017 16.6003C10.1754 16.7069 9.74909 16.7779 9.32279 16.7779H4.5625V6.97314H9.21622ZM8.93202 10.9519C9.32279 10.9519 9.64252 10.8453 9.89119 10.6677C10.1399 10.4901 10.2464 10.1704 10.2464 9.77959C10.2464 9.56644 10.2109 9.35329 10.1399 9.21119C10.0688 9.0691 9.96224 8.96252 9.82014 8.85595C9.67804 8.7849 9.53594 8.71385 9.35832 8.67832C9.1807 8.6428 9.00307 8.6428 8.78993 8.6428H6.7295V10.9519H8.93202ZM9.0386 15.1438C9.25175 15.1438 9.46489 15.1083 9.64252 15.0727C9.82014 15.0372 9.99776 14.9662 10.1399 14.8596C10.282 14.753 10.3885 14.6465 10.4951 14.4688C10.5662 14.2912 10.6372 14.0781 10.6372 13.8294C10.6372 13.332 10.4951 12.9768 10.2109 12.7281C9.92671 12.515 9.53594 12.4084 9.07412 12.4084H6.7295V15.1438H9.0386ZM15.8948 15.1083C16.179 15.3925 16.6053 15.5346 17.1737 15.5346C17.5645 15.5346 17.9197 15.428 18.2039 15.2504C18.4881 15.0372 18.6658 14.8241 18.7368 14.6109H20.4775C20.1933 15.4635 19.767 16.0674 19.1986 16.4582C18.6302 16.8135 17.9553 17.0266 17.1382 17.0266C16.5698 17.0266 16.0725 16.92 15.6106 16.7424C15.1488 16.5648 14.7936 16.3161 14.4739 15.9609C14.1541 15.6411 13.9055 15.2504 13.7634 14.7886C13.5857 14.3267 13.5147 13.8294 13.5147 13.261C13.5147 12.7281 13.5857 12.2308 13.7634 11.769C13.941 11.3071 14.1897 10.9164 14.5094 10.5611C14.8291 10.2414 15.2199 9.95721 15.6462 9.77959C16.108 9.60196 16.5698 9.49539 17.1382 9.49539C17.7421 9.49539 18.275 9.60196 18.7368 9.85064C19.1986 10.0993 19.5539 10.3835 19.8381 10.8098C20.1223 11.2006 20.3354 11.6624 20.4775 12.1597C20.5486 12.6571 20.5841 13.1544 20.5486 13.7228H15.3975C15.3975 14.2912 15.6106 14.8241 15.8948 15.1083ZM18.1329 11.3782C17.8842 11.1295 17.4934 10.9874 17.0316 10.9874C16.7119 10.9874 16.4632 11.0585 16.2501 11.165C16.0369 11.2716 15.8948 11.4137 15.7527 11.5558C15.6106 11.6979 15.5396 11.8755 15.5041 12.0532C15.4685 12.2308 15.433 12.3729 15.433 12.515H18.6302C18.5592 11.9821 18.3816 11.6269 18.1329 11.3782ZM15.0067 7.64811H18.9855V8.60728H15.0067V7.64811Z" fill="white"/>
</svg>
