<svg width="105" height="35" viewBox="0 0 105 35" fill="none" xmlns="http://www.w3.org/2000/svg">
<path d="M6.8 25.13L0.71 18.5L6.8 11.87H13.25L7.13 18.5L13.25 25.13H6.8ZM28.7809 7.94V20.54C28.7809 21.8 29.0909 22.77 29.7109 23.45C30.3309 24.13 31.2409 24.47 32.4409 24.47C33.6409 24.47 34.5609 24.13 35.2009 23.45C35.8409 22.77 36.1609 21.8 36.1609 20.54V7.94H41.2909V20.51C41.2909 22.39 40.8909 23.98 40.0909 25.28C39.2909 26.58 38.2109 27.56 36.8509 28.22C35.5109 28.88 34.0109 29.21 32.3509 29.21C30.6909 29.21 29.2009 28.89 27.8809 28.25C26.5809 27.59 25.5509 26.61 24.7909 25.31C24.0309 23.99 23.6509 22.39 23.6509 20.51V7.94H28.7809ZM90.2197 0.499999L82.1797 34.61H77.2297L85.2697 0.499999H90.2197ZM92.4134 11.87H98.8634L104.953 18.5L98.8634 25.13H92.4134L98.5334 18.5L92.4134 11.87Z" fill="white"/>
<path d="M68.7432 7.94V29H63.6132V16.37L58.9032 29H54.7632L50.0232 16.34V29H44.8932V7.94H50.9532L56.8632 22.52L62.7132 7.94H68.7432Z" fill="#0050FF"/>
</svg>
